<svg xmlns="http://www.w3.org/2000/svg" version="1.1" xmlns:xlink="http://www.w3.org/1999/xlink" xmlns:svgjs="http://svgjs.dev/svgjs" width="1500" height="143" viewBox="0 0 1500 143"><g transform="matrix(1,0,0,1,-0.9090909090909918,0.6916322705103539)"><svg viewBox="0 0 396 38" data-background-color="#ffffff" preserveAspectRatio="xMidYMid meet" height="143" width="1500" xmlns="http://www.w3.org/2000/svg" xmlns:xlink="http://www.w3.org/1999/xlink"><g id="tight-bounds" transform="matrix(1,0,0,1,0.2400000000000091,-0.18379039356219096)"><svg viewBox="0 0 395.52 38.36758078712438" height="38.36758078712438" width="395.52"><g><svg viewBox="0 0 463.37107371704207 44.94950218763951" height="38.36758078712438" width="395.52"><g><rect width="4.033425368325959" height="44.94950218763951" x="53.25894319603036" y="0" fill="#111111" opacity="1" stroke-width="0" stroke="transparent" fill-opacity="1" class="rect-yte-0" data-fill-palette-color="primary" rx="1%" id="yte-0" data-palette-color="#111111"></rect></g><g transform="matrix(1,0,0,1,67.85107371704207,0.11181468205880307)"><svg viewBox="0 0 395.52 44.725872823521904" height="44.725872823521904" width="395.52"><g id="textblocktransform"><svg viewBox="0 0 395.52 44.725872823521904" height="44.725872823521904" width="395.52" id="textblock"><g><svg viewBox="0 0 395.52 44.725872823521904" height="44.725872823521904" width="395.52"><g transform="matrix(1,0,0,1,0,0)"><svg width="395.52" viewBox="3.1 -33.28 382.76 43.29" height="44.725872823521904" data-palette-color="#111111"><path d="M22.63-23.1Q24.71-23.1 26.54-21.73L26.54-21.73Q27.61-20.95 27.61-19.68L27.61-19.68Q27.61-18.87 27.17-17.77L27.17-17.77Q26.73-16.67 26.18-16.11 25.63-15.55 25.02-15.55L25.02-15.55Q24.68-15.55 24.29-15.75L24.29-15.75Q22.92-16.5 21.46-16.5L21.46-16.5Q19.58-16.5 17.94-15.31 16.31-14.11 15.32-12.01 14.33-9.91 14.33-7.32L14.33-7.32 14.33-5 21.34-5Q21.92-5 22.24-4.8 22.56-4.59 22.72-4.05 22.88-3.52 22.88-2.49L22.88-2.49Q22.88-1.46 22.72-0.93 22.56-0.39 22.24-0.2 21.92 0 21.34 0L21.34 0 4.64 0Q4.05 0 3.74-0.2 3.42-0.39 3.26-0.93 3.1-1.46 3.1-2.49L3.1-2.49Q3.1-3.52 3.26-4.05 3.42-4.59 3.74-4.8 4.05-5 4.64-5L4.64-5 8.23-5 8.23-17.55 5.37-17.55Q4.79-17.55 4.47-17.75 4.15-17.94 3.99-18.48 3.83-19.02 3.83-20.04L3.83-20.04Q3.83-21.07 3.99-21.61 4.15-22.14 4.47-22.35 4.79-22.56 5.37-22.56L5.37-22.56 12.06-22.56Q12.89-22.56 13.24-22.2 13.6-21.85 13.6-21.02L13.6-21.02 13.6-15.72Q15.43-19.26 17.81-21.18 20.19-23.1 22.63-23.1L22.63-23.1ZM44.97-23.1Q48.68-23.1 51.46-21.58 54.25-20.07 55.75-17.38 57.25-14.7 57.25-11.28L57.25-11.28Q57.25-7.86 55.75-5.18 54.25-2.49 51.46-0.98 48.68 0.54 44.97 0.54L44.97 0.54Q41.26 0.54 38.47-0.98 35.69-2.49 34.19-5.18 32.69-7.86 32.69-11.28L32.69-11.28Q32.69-14.7 34.19-17.38 35.69-20.07 38.47-21.58 41.26-23.1 44.97-23.1L44.97-23.1ZM44.97-17.55Q43.21-17.55 41.92-16.78 40.62-16.02 39.93-14.6 39.23-13.18 39.23-11.28L39.23-11.28Q39.23-9.38 39.93-7.96 40.62-6.54 41.92-5.77 43.21-5 44.97-5L44.97-5Q46.73-5 48.02-5.77 49.31-6.54 50.01-7.96 50.71-9.38 50.71-11.28L50.71-11.28Q50.71-13.18 50.01-14.6 49.31-16.02 48.02-16.78 46.73-17.55 44.97-17.55L44.97-17.55ZM83.27-23.1Q84.79-23.1 85.35-22.75 85.91-22.41 85.91-21.56L85.91-21.56 85.91-13.72Q85.91-12.89 85.16-12.54 84.42-12.18 82.69-12.18L82.69-12.18Q81.54-12.18 80.92-12.34 80.29-12.5 80.05-12.82 79.8-13.13 79.8-13.72L79.8-13.72Q79.8-14.75 79.3-15.63 78.8-16.5 77.81-17.03 76.83-17.55 75.43-17.55L75.43-17.55Q73.68-17.55 72.36-16.78 71.04-16.02 70.32-14.59 69.6-13.16 69.6-11.28L69.6-11.28Q69.6-9.4 70.32-7.97 71.04-6.54 72.36-5.77 73.68-5 75.43-5L75.43-5Q77.31-5 79.28-5.62 81.25-6.23 83.1-7.3L83.1-7.3Q83.54-7.54 83.91-7.54L83.91-7.54Q85-7.54 85.83-5.62L85.83-5.62Q86.27-4.57 86.27-3.83L86.27-3.83Q86.27-2.73 85.22-2.15L85.22-2.15Q82.95-0.88 80.45-0.17 77.95 0.54 75.43 0.54L75.43 0.54Q71.72 0.54 68.92-0.98 66.11-2.49 64.58-5.18 63.06-7.86 63.06-11.28L63.06-11.28Q63.06-14.7 64.59-17.4 66.13-20.09 68.78-21.59 71.43-23.1 74.7-23.1L74.7-23.1Q78.66-23.1 80.29-20.24L80.29-20.24 80.29-21.56Q80.29-22.39 81-22.74 81.71-23.1 83.27-23.1L83.27-23.1ZM116.94-5Q117.79-5 118.13-4.49 118.47-3.98 118.47-2.49L118.47-2.49Q118.47-1.46 118.32-0.93 118.16-0.39 117.84-0.2 117.52 0 116.94 0L116.94 0 112.76 0Q111.54 0 110.86-0.98L110.86-0.98 104.7-9.52 101.34-6.96 101.34-5 103.46-5Q104.05-5 104.36-4.8 104.68-4.59 104.84-4.05 105-3.52 105-2.49L105-2.49Q105-1.46 104.84-0.93 104.68-0.39 104.36-0.2 104.05 0 103.46 0L103.46 0 93.35 0Q92.77 0 92.45-0.2 92.13-0.39 91.97-0.93 91.81-1.46 91.81-2.49L91.81-2.49Q91.81-3.52 91.97-4.05 92.13-4.59 92.45-4.8 92.77-5 93.35-5L93.35-5 95.23-5 95.23-27.03 92.86-27.03Q92.28-27.03 91.96-27.22 91.64-27.42 91.48-27.95 91.33-28.49 91.33-29.52L91.33-29.52Q91.33-30.54 91.48-31.08 91.64-31.62 91.96-31.82 92.28-32.03 92.86-32.03L92.86-32.03 99.8-32.03Q100.63-32.03 100.98-31.68 101.34-31.32 101.34-30.49L101.34-30.49 101.34-12.87 107.68-18.04 106.46-18.04Q105.61-18.04 105.27-18.51 104.92-18.97 104.92-20.29L104.92-20.29Q104.92-21.63 105.27-22.09 105.61-22.56 106.46-22.56L106.46-22.56 116.57-22.56Q117.42-22.56 117.77-22.09 118.11-21.63 118.11-20.29L118.11-20.29Q118.11-18.97 117.77-18.51 117.42-18.04 116.57-18.04L116.57-18.04 115.59-18.04 109.51-13.13 115.45-5 116.94-5ZM136.76-22.56Q137.59-22.56 137.94-22.2 138.3-21.85 138.3-21.02L138.3-21.02 138.3-5 145.16-5Q145.74-5 146.06-4.8 146.38-4.59 146.54-4.05 146.69-3.52 146.69-2.49L146.69-2.49Q146.69-1.46 146.54-0.93 146.38-0.39 146.06-0.2 145.74 0 145.16 0L145.16 0 125.53 0Q124.94 0 124.62-0.2 124.31-0.39 124.15-0.93 123.99-1.46 123.99-2.49L123.99-2.49Q123.99-3.52 124.15-4.05 124.31-4.59 124.62-4.8 124.94-5 125.53-5L125.53-5 132.19-5 132.19-17.55 126.99-17.55Q126.41-17.55 126.09-17.75 125.77-17.94 125.61-18.48 125.45-19.02 125.45-20.04L125.45-20.04Q125.45-21.07 125.61-21.61 125.77-22.14 126.09-22.35 126.41-22.56 126.99-22.56L126.99-22.56 136.76-22.56ZM135.17-33.28Q136.9-33.28 137.6-32.92 138.3-32.57 138.3-31.74L138.3-31.74 138.3-27.73Q138.3-26.9 137.65-26.55 137-26.2 135.29-26.2L135.29-26.2Q133.58-26.2 132.89-26.55 132.19-26.9 132.19-27.73L132.19-27.73 132.19-31.74Q132.19-32.59 132.83-32.93 133.46-33.28 135.17-33.28L135.17-33.28ZM168.37-23.1Q170.59-23.1 172.27-22.12 173.94-21.14 174.84-19.35 175.74-17.55 175.74-15.14L175.74-15.14 175.74-5 177.62-5Q178.21-5 178.53-4.8 178.84-4.59 179-4.05 179.16-3.52 179.16-2.49L179.16-2.49Q179.16-1.46 179-0.93 178.84-0.39 178.53-0.2 178.21 0 177.62 0L177.62 0 168.49 0Q167.91 0 167.59-0.2 167.27-0.39 167.11-0.93 166.96-1.46 166.96-2.49L166.96-2.49Q166.96-3.52 167.11-4.05 167.27-4.59 167.59-4.8 167.91-5 168.49-5L168.49-5 169.64-5 169.64-13.7Q169.64-15.6 168.98-16.58 168.32-17.55 166.78-17.55L166.78-17.55Q165.37-17.55 164.1-16.37 162.83-15.19 162.06-13.21 161.29-11.23 161.29-8.98L161.29-8.98 161.29-5 162.44-5Q163.02-5 163.34-4.8 163.66-4.59 163.82-4.05 163.98-3.52 163.98-2.49L163.98-2.49Q163.98-1.46 163.82-0.93 163.66-0.39 163.34-0.2 163.02 0 162.44 0L162.44 0 153.31 0Q152.72 0 152.4-0.2 152.09-0.39 151.93-0.93 151.77-1.46 151.77-2.49L151.77-2.49Q151.77-3.52 151.93-4.05 152.09-4.59 152.4-4.8 152.72-5 153.31-5L153.31-5 155.19-5 155.19-17.55 152.82-17.55Q152.23-17.55 151.92-17.75 151.6-17.94 151.44-18.48 151.28-19.02 151.28-20.04L151.28-20.04Q151.28-21.07 151.44-21.61 151.6-22.14 151.92-22.35 152.23-22.56 152.82-22.56L152.82-22.56 158.78-22.56Q159.61-22.56 159.96-22.2 160.31-21.85 160.31-21.02L160.31-21.02 160.31-17.48Q163.54-23.1 168.37-23.1L168.37-23.1ZM192.76-23.1Q195.08-23.1 196.98-22.12 198.89-21.14 200.16-19.31L200.16-19.31 200.16-21.02Q200.16-21.85 200.51-22.2 200.86-22.56 201.69-22.56L201.69-22.56 207.41-22.56Q207.99-22.56 208.31-22.35 208.63-22.14 208.79-21.61 208.94-21.07 208.94-20.04L208.94-20.04Q208.94-19.02 208.79-18.48 208.63-17.94 208.31-17.75 207.99-17.55 207.41-17.55L207.41-17.55 205.28-17.55 205.28-0.02Q205.28 4.76 202.41 7.39 199.55 10.01 193.83 10.01L193.83 10.01Q191.73 10.01 189.24 9.61 186.75 9.2 184.48 8.5L184.48 8.5Q183.31 8.13 183.31 6.81L183.31 6.81Q183.31 6.23 183.63 5.1L183.63 5.1Q183.99 3.96 184.45 3.44 184.9 2.93 185.51 2.93L185.51 2.93Q185.82 2.93 186.09 3.03L186.09 3.03Q190.76 4.47 193.59 4.47L193.59 4.47Q196.54 4.47 197.86 3.23 199.18 2 199.18-0.51L199.18-0.51 199.18-3Q197.93-1.66 196.3-0.93 194.66-0.2 192.76-0.2L192.76-0.2Q189.61-0.2 187.22-1.67 184.82-3.15 183.53-5.75 182.24-8.35 182.24-11.65L182.24-11.65Q182.24-14.94 183.53-17.54 184.82-20.14 187.22-21.62 189.61-23.1 192.76-23.1L192.76-23.1ZM193.74-17.55Q191.46-17.55 190.12-16 188.78-14.45 188.78-11.65L188.78-11.65Q188.78-8.84 190.12-7.29 191.46-5.74 193.74-5.74L193.74-5.74Q195.3-5.74 196.58-6.41 197.86-7.08 198.61-8.41 199.35-9.74 199.35-11.65L199.35-11.65Q199.35-13.55 198.61-14.88 197.86-16.21 196.58-16.88 195.3-17.55 193.74-17.55L193.74-17.55ZM248.95-32.03Q249.78-32.03 250.14-31.68 250.49-31.32 250.49-30.49L250.49-30.49 250.49-20.21Q251.74-21.61 253.37-22.35 255.01-23.1 256.91-23.1L256.91-23.1Q260.11-23.1 262.5-21.53 264.9-19.97 266.17-17.29 267.44-14.6 267.44-11.28L267.44-11.28Q267.44-7.96 266.17-5.27 264.9-2.59 262.5-1.03 260.11 0.54 256.91 0.54L256.91 0.54Q254.59 0.54 252.69-0.55 250.79-1.64 249.52-3.59L249.52-3.59 249.52-1.54Q249.52-0.71 249.16-0.35 248.81 0 247.98 0L247.98 0 242.51 0Q241.92 0 241.61-0.21 241.29-0.42 241.13-0.95 240.97-1.49 240.97-2.51L240.97-2.51Q240.97-3.54 241.13-4.08 241.29-4.61 241.61-4.81 241.92-5 242.51-5L242.51-5 244.39-5 244.39-27.03 242.02-27.03Q241.44-27.03 241.12-27.22 240.8-27.42 240.64-27.95 240.48-28.49 240.48-29.52L240.48-29.52Q240.48-30.54 240.64-31.08 240.8-31.62 241.12-31.82 241.44-32.03 242.02-32.03L242.02-32.03 248.95-32.03ZM255.94-17.55Q254.37-17.55 253.11-16.82 251.84-16.09 251.08-14.66 250.32-13.23 250.32-11.28L250.32-11.28Q250.32-9.33 251.08-7.9 251.84-6.47 253.11-5.74 254.37-5 255.94-5L255.94-5Q257.45-5 258.57-5.77 259.7-6.54 260.29-7.96 260.89-9.38 260.89-11.28L260.89-11.28Q260.89-13.18 260.29-14.6 259.7-16.02 258.57-16.78 257.45-17.55 255.94-17.55L255.94-17.55ZM286.4-32.03Q287.23-32.03 287.59-31.68 287.94-31.32 287.94-30.49L287.94-30.49 287.94-5 294.8-5Q295.39-5 295.71-4.8 296.02-4.59 296.18-4.05 296.34-3.52 296.34-2.49L296.34-2.49Q296.34-1.46 296.18-0.93 296.02-0.39 295.71-0.2 295.39 0 294.8 0L294.8 0 275.17 0Q274.59 0 274.27-0.2 273.95-0.39 273.79-0.93 273.63-1.46 273.63-2.49L273.63-2.49Q273.63-3.52 273.79-4.05 273.95-4.59 274.27-4.8 274.59-5 275.17-5L275.17-5 281.84-5 281.84-27.03 276.15-27.03Q275.56-27.03 275.25-27.22 274.93-27.42 274.77-27.95 274.61-28.49 274.61-29.52L274.61-29.52Q274.61-30.54 274.77-31.08 274.93-31.62 275.25-31.82 275.56-32.03 276.15-32.03L276.15-32.03 286.4-32.03ZM314.77-23.1Q318.48-23.1 321.26-21.58 324.05-20.07 325.55-17.38 327.05-14.7 327.05-11.28L327.05-11.28Q327.05-7.86 325.55-5.18 324.05-2.49 321.26-0.98 318.48 0.54 314.77 0.54L314.77 0.54Q311.06 0.54 308.28-0.98 305.49-2.49 303.99-5.18 302.49-7.86 302.49-11.28L302.49-11.28Q302.49-14.7 303.99-17.38 305.49-20.07 308.28-21.58 311.06-23.1 314.77-23.1L314.77-23.1ZM314.77-17.55Q313.01-17.55 311.72-16.78 310.42-16.02 309.73-14.6 309.03-13.18 309.03-11.28L309.03-11.28Q309.03-9.38 309.73-7.96 310.42-6.54 311.72-5.77 313.01-5 314.77-5L314.77-5Q316.53-5 317.82-5.77 319.12-6.54 319.81-7.96 320.51-9.38 320.51-11.28L320.51-11.28Q320.51-13.18 319.81-14.6 319.12-16.02 317.82-16.78 316.53-17.55 314.77-17.55L314.77-17.55ZM342.65-23.1Q344.97-23.1 346.87-22.12 348.78-21.14 350.05-19.31L350.05-19.31 350.05-21.02Q350.05-21.85 350.4-22.2 350.75-22.56 351.58-22.56L351.58-22.56 357.3-22.56Q357.88-22.56 358.2-22.35 358.52-22.14 358.68-21.61 358.83-21.07 358.83-20.04L358.83-20.04Q358.83-19.02 358.68-18.48 358.52-17.94 358.2-17.75 357.88-17.55 357.3-17.55L357.3-17.55 355.17-17.55 355.17-0.02Q355.17 4.76 352.3 7.39 349.44 10.01 343.72 10.01L343.72 10.01Q341.62 10.01 339.13 9.61 336.64 9.2 334.37 8.5L334.37 8.5Q333.2 8.13 333.2 6.81L333.2 6.81Q333.2 6.23 333.52 5.1L333.52 5.1Q333.88 3.96 334.34 3.44 334.79 2.93 335.4 2.93L335.4 2.93Q335.71 2.93 335.98 3.03L335.98 3.03Q340.65 4.47 343.48 4.47L343.48 4.47Q346.43 4.47 347.75 3.23 349.07 2 349.07-0.51L349.07-0.51 349.07-3Q347.82-1.66 346.19-0.93 344.55-0.2 342.65-0.2L342.65-0.2Q339.5-0.2 337.11-1.67 334.71-3.15 333.42-5.75 332.13-8.35 332.13-11.65L332.13-11.65Q332.13-14.94 333.42-17.54 334.71-20.14 337.11-21.62 339.5-23.1 342.65-23.1L342.65-23.1ZM343.62-17.55Q341.35-17.55 340.01-16 338.67-14.45 338.67-11.65L338.67-11.65Q338.67-8.84 340.01-7.29 341.35-5.74 343.62-5.74L343.62-5.74Q345.19-5.74 346.47-6.41 347.75-7.08 348.5-8.41 349.24-9.74 349.24-11.65L349.24-11.65Q349.24-13.55 348.5-14.88 347.75-16.21 346.47-16.88 345.19-17.55 343.62-17.55L343.62-17.55ZM381.85-23.1Q383.42-23.1 384.08-22.74 384.74-22.39 384.74-21.56L384.74-21.56 384.74-16.41Q384.74-15.58 384.21-15.22 383.69-14.87 382.49-14.87L382.49-14.87Q381.2-14.87 380.71-15.38L380.71-15.38Q379.27-16.92 377.41-17.57 375.56-18.21 373.11-18.21L373.11-18.21Q371.67-18.21 370.86-17.7 370.04-17.19 370.04-16.33L370.04-16.33Q370.04-15.31 371.85-14.87L371.85-14.87Q372.8-14.62 375.09-14.4L375.09-14.4Q377.36-14.14 378.86-13.87 380.37-13.6 381.71-13.06L381.71-13.06Q383.66-12.26 384.76-10.82 385.86-9.38 385.86-7.01L385.86-7.01Q385.86-4.69 384.72-2.99 383.59-1.29 381.4-0.38 379.22 0.54 376.14 0.54L376.14 0.54Q372.75 0.54 369.84-1.2L369.84-1.2 369.84-1Q369.84-0.17 369.14 0.18 368.43 0.54 366.86 0.54L366.86 0.54Q365.3 0.54 364.64 0.18 363.98-0.17 363.98-1L363.98-1 363.98-6.45Q363.98-7.25 364.56-7.62 365.13-7.98 366.33-7.98L366.33-7.98Q367.82-7.98 368.35-7.3L368.35-7.3Q369.57-5.76 371.48-5.05 373.38-4.35 375.65-4.35L375.65-4.35Q379.56-4.35 379.56-6.37L379.56-6.37Q379.56-6.98 379.01-7.35 378.46-7.71 377.39-7.96L377.39-7.96Q376.78-8.08 374.55-8.4L374.55-8.4Q372.09-8.69 370.32-9.07 368.55-9.45 367.11-10.25L367.11-10.25Q363.74-12.11 363.74-16.11L363.74-16.11Q363.74-18.24 364.89-19.82 366.03-21.41 368.05-22.25 370.06-23.1 372.58-23.1L372.58-23.1Q376.26-23.1 379.12-21.31L379.12-21.31 379.12-21.56Q379.12-22.39 379.72-22.74 380.32-23.1 381.85-23.1L381.85-23.1Z" opacity="1" transform="matrix(1,0,0,1,0,0)" fill="#111111" class="wordmark-text-0" data-fill-palette-color="primary" id="text-0"></path></svg></g></svg></g></svg></g></svg></g><g transform="matrix(1,0,0,1,0,0.11181468205880307)"><svg viewBox="0 0 42.7002380433446 44.725872823521904" height="44.725872823521904" width="42.7002380433446"><g><svg version="1.0" xmlns="http://www.w3.org/2000/svg" xmlns:xlink="http://www.w3.org/1999/xlink" x="0" y="0" viewBox="0 0 95.471 100" enable-background="new 0 0 95.471 100" xml:space="preserve" id="icon-0" width="42.7002380433446" height="44.725872823521904" class="icon-icon-0" data-fill-palette-color="accent"><path d="M47.735 0C47.652 2.825 45.997 13.412 27.936 30.934 10.554 47.797 2.439 49.824 0 50 2.439 50.178 10.554 52.204 27.936 69.066 45.997 86.589 47.652 97.177 47.735 100 47.818 97.177 49.474 86.589 67.533 69.066 84.917 52.204 93.031 50.178 95.471 50 93.032 49.824 84.917 47.797 67.533 30.934 49.475 13.412 47.819 2.825 47.735 0" fill="#111111" data-fill-palette-color="accent"></path></svg></g></svg></g></svg></g><defs></defs></svg><rect width="395.52" height="38.36758078712438" fill="none" stroke="none" visibility="hidden"></rect></g></svg></g></svg>